:SAMPLES-PER-SECOND 30
:FULLY-SPECIFIED
:DEGREES
1145
root  30.9139 39.2708 18.19 157.477 71.3456 164.649
RightUpLeg  -12.765 -11.7891 -11.3045
RightLeg  61.2847 -2.39562 -5.28242
RightFoot  6.05089 -0.630951 4.38537
RightToes  0.00048216 0.542163 -0.142577
Spine  11.6378 1.80553 2.66557
Spine1  7.76368 4.58373 -9.54556
HEad  -12.3039 -3.70193 -2.90397
LeftShoulder1  7.33212 -11.3511 -42.9035
LeftArm  -14.7131 24.9504 -28.2815
LeftForeArm  29.9781 -25.0324 -3.73676
LeftHand  -0.25398 0.0180481 5.50724
RightShoulder  5.57203 9.57077 36.6201
RightArm  13.6543 -13.9967 39.7781
RightForeArm  113.063 80.1087 103.185
RightHand  -1.67532 5.232 -18.5302
LeftUpLeg  -3.47196 14.2094 -10.0992
LeftLeg  18.5752 8.11439 2.62358
LeftFoot  -7.88276 -0.229781 9.17478
LeftToes  1.06246e-005 4.65856e-005 -8.18502e-006
1146
root  32.2185 39.4766 17.9259 160.479 69.485 167.583
RightUpLeg  -15.7156 -11.8664 -10.6536
RightLeg  54.1973 -3.24122 -5.1901
RightFoot  4.58205 -0.324116 2.54021
RightToes  0.00048216 0.542163 -0.142577
Spine  12.0162 1.44922 3.21279
Spine1  7.33741 4.13925 -9.34793
HEad  -11.6597 -5.02732 -3.23941
LeftShoulder1  7.43933 -11.5445 -42.9768
LeftArm  -14.7434 22.655 -28.479
LeftForeArm  34.888 -33.158 -5.35875
LeftHand  -0.25398 0.0180481 5.50724
RightShoulder  5.49372 9.52936 36.1668
RightArm  13.1448 -14.5824 39.5075
RightForeArm  116.516 79.8384 107.768
RightHand  -1.69116 5.23593 -18.6925
LeftUpLeg  -0.183893 11.3609 -8.68444
LeftLeg  16.614 8.78614 1.24607
LeftFoot  -8.74077 -0.144338 8.66332
LeftToes  1.06246e-005 4.65856e-005 -8.18502e-006
1147
root  33.564 39.5538 17.7125 161.679 67.321 168.413
RightUpLeg  -17.071 -12.1347 -10.9805
RightLeg  43.7961 -4.8287 -5.22361
RightFoot  2.84724 -0.271726 2.35363
RightToes  0.00048216 0.542163 -0.142577
Spine  12.0418 1.33255 2.60052
Spine1  6.95413 3.76517 -9.01034
HEad  -10.887 -5.74041 -2.96468
LeftShoulder1  7.47871 -11.6319 -42.9538
LeftArm  -13.9438 20.5509 -28.4236
LeftForeArm  40.1917 -41.7165 -7.36908
LeftHand  -0.25398 0.0180481 5.50724
RightShoulder  5.42636 9.45509 35.8952
RightArm  12.6064 -15.3342 38.9781
RightForeArm  120.324 79.4585 112.744
RightHand  -1.68876 5.14296 -18.8225
LeftUpLeg  2.38663 8.53729 -7.97253
LeftLeg  15.4635 9.17085 -0.0479463
LeftFoot  -9.79438 -0.0492125 7.99402
LeftToes  1.06246e-005 4.65856e-005 -8.18502e-006
1148
root  35.0082 39.4915 17.5262 162.265 64.7968 168.408
RightUpLeg  -16.999 -12.5704 -12.0389
RightLeg  30.7851 -5.68509 -3.93488
RightFoot  2.73169 -0.434076 3.65957
RightToes  0.00048216 0.542163 -0.142577
Spine  11.6877 1.23235 1.36648
Spine1  6.51841 3.3568 -8.74876
HEad  -10.2489 -6.09959 -2.61913
LeftShoulder1  7.46955 -11.6844 -42.7405
LeftArm  -13.0386 18.7478 -28.232
LeftForeArm  44.7624 -49.5481 -9.78451
LeftHand  -0.25398 0.0180481 5.50724
RightShoulder  5.36571 9.34515 35.784
RightArm  11.9797 -16.2688 38.4145
RightForeArm  124.713 79.0966 117.07
RightHand  -1.65176 5.02653 -18.6209
LeftUpLeg  4.31303 6.75476 -7.56464
LeftLeg  15.497 8.48259 -0.916996
LeftFoot  -11.6261 0.0888821 7.46364
LeftToes  1.06246e-005 4.65856e-005 -8.18502e-006
1149
root  36.5316 39.3879 17.3094 163.017 62.2082 168.612
RightUpLeg  -16.0217 -12.4372 -13.3127
RightLeg  17.1817 -4.05534 -1.60032
RightFoot  3.17817 -0.46449 3.80482
RightToes  0.00048216 0.542163 -0.142577
Spine  11.0996 1.08487 0.496529
Spine1  6.19636 2.98503 -8.30667
HEad  -9.7169 -6.40174 -2.17133
LeftShoulder1  7.46291 -11.7547 -42.4908
LeftArm  -12.6409 17.3489 -27.9973
LeftForeArm  48.1517 -56.1766 -12.6231
LeftHand  -0.25398 0.0180481 5.50724
RightShoulder  5.33089 9.27925 35.7281
RightArm  11.3626 -17.4353 37.9296
RightForeArm  128.381 78.7681 120.427
RightHand  -1.65404 5.06537 -18.5792
LeftUpLeg  6.51693 6.0161 -6.91215
LeftLeg  15.2601 6.54305 -1.5856
LeftFoot  -13.648 0.216414 6.70997
LeftToes  1.06246e-005 4.65856e-005 -8.18502e-006
1150
root  38.1012 39.2228 17.0778 163.548 59.6485 168.851
RightUpLeg  -14.5776 -11.7301 -14.8151
RightLeg  5.85308 -0.534238 -0.0109776
RightFoot  1.57741 -0.415095 3.8003
RightToes  0.00048216 0.542163 -0.142577
Spine  10.5064 0.981917 -0.231223
Spine1  6.20032 2.65113 -7.51721
HEad  -8.96898 -6.95156 -2.37427
LeftShoulder1  7.49819 -11.8705 -42.3624
LeftArm  -13.1087 16.4241 -27.8556
LeftForeArm  50.5949 -61.4696 -15.8175
LeftHand  -0.25398 0.0180481 5.50724
RightShoulder  5.31961 9.28765 35.6149
RightArm  10.866 -18.6148 37.6329
RightForeArm  130.151 78.5235 122.412
RightHand  -1.70947 5.23643 -18.8862
LeftUpLeg  8.93236 6.00538 -6.04445
LeftLeg  15.142 3.57128 -1.87962
LeftFoot  -15.6454 0.293998 5.32787
LeftToes  1.06246e-005 4.65856e-005 -8.18502e-006
1151
root  39.7287 38.9763 16.8683 164.189 57.345 169.497
RightUpLeg  -13.5602 -12.0335 -15.5821
RightLeg  -0.127518 3.10883 0.340214
RightFoot  0.149109 -0.570538 5.64512
RightToes  0.00048216 0.542163 -0.142577
Spine  9.99487 0.971169 -0.712446
Spine1  6.37991 2.41931 -6.67917
HEad  -8.21822 -6.61919 -3.2464
LeftShoulder1  7.55014 -11.9851 -42.3393
LeftArm  -14.185 16.0374 -27.8295
LeftForeArm  52.3733 -65.3019 -19.0312
LeftHand  -0.25398 0.0180481 5.50724
RightShoulder  5.29964 9.30746 35.399
RightArm  10.5329 -19.5464 37.6136
RightForeArm  130.503 78.4417 122.973
RightHand  -1.75157 5.37706 -19.095
LeftUpLeg  11.0568 6.30662 -4.77476
LeftLeg  16.0961 0.668314 -1.51578
LeftFoot  -17.7901 0.339419 4.09508
LeftToes  1.06246e-005 4.65856e-005 -8.18502e-006
1152
root  41.3881 38.7131 16.6751 165.347 55.9415 170.963
RightUpLeg  -13.9371 -12.0283 -15.0364
RightLeg  1.20286 4.56525 0.712335
RightFoot  2.61426 -0.973091 8.01825
RightToes  0.00048216 0.542163 -0.142577
Spine  9.79739 1.11161 -0.116307
Spine1  6.38519 2.4939 -6.2351
HEad  -8.03999 -3.58963 -4.19258
LeftShoulder1  7.54697 -11.9411 -42.4491
LeftArm  -15.3268 16.2918 -27.5948
LeftForeArm  53.5902 -67.7481 -21.7324
LeftHand  -0.25398 0.0180481 5.50724
RightShoulder  5.28943 9.31073 35.3106
RightArm  10.6046 -20.0224 37.6631
RightForeArm  129.936 78.5262 122.329
RightHand  -1.76575 5.45751 -19.1079
LeftUpLeg  12.8974 5.91523 -3.04419
LeftLeg  17.8014 -0.548738 -0.588985
LeftFoot  -19.9229 0.326657 2.80466
LeftToes  1.06246e-005 4.65856e-005 -8.18502e-006
1153
root  43.0614 38.4472 16.4775 166.437 55.5267 172.721
RightUpLeg  -15.3216 -11.6792 -13.4834
RightLeg  7.51171 5.14598 1.21352
RightFoot  8.03221 -1.47802 9.02389
RightToes  0.00048216 0.542163 -0.142577
Spine  10.2068 1.32564 1.494
Spine1  6.07435 2.8954 -6.49961
HEad  -8.98294 3.1952 -5.35451
LeftShoulder1  7.4905 -11.6925 -42.8447
LeftArm  -16.3399 17.1688 -26.8321
LeftForeArm  53.9104 -68.7802 -23.1107
LeftHand  -0.25398 0.0180481 5.50724
RightShoulder  5.34025 9.32153 35.6647
RightArm  11.3543 -19.8439 37.5113
RightForeArm  127.859 78.7947 120.087
RightHand  -1.78677 5.50513 -19.2472
LeftUpLeg  14.4154 3.86369 -1.45286
LeftLeg  20.5634 0.29387 0.4667
LeftFoot  -21.495 0.0607401 -0.731309
LeftToes  1.06246e-005 4.65856e-005 -8.18502e-006
1154
root  44.6912 38.2429 16.2685 167.546 55.2434 174.786
RightUpLeg  -16.2596 -12.1078 -11.5571
RightLeg  14.4401 6.15824 1.78985
RightFoot  10.7137 -1.42883 7.67417
RightToes  0.00048216 0.542163 -0.142577
Spine  11.1314 1.33595 3.88489
Spine1  5.72695 3.37848 -7.26349
HEad  -11.0641 11.8374 -8.26516
LeftShoulder1  7.47443 -11.4596 -43.4501
LeftArm  -17.3508 18.3009 -25.9766
LeftForeArm  52.2458 -67.7108 -21.8981
LeftHand  -0.25398 0.0180481 5.50724
RightShoulder  5.42363 9.32472 36.2899
RightArm  12.5455 -19.1593 37.2709
RightForeArm  124.26 79.2342 115.937
RightHand  -1.77497 5.38868 -19.3202
LeftUpLeg  14.7235 0.713366 -0.0460463
LeftLeg  25.6435 2.30672 1.56323
LeftFoot  -20.6143 -0.363793 -6.28688
LeftToes  1.06246e-005 4.65856e-005 -8.18502e-006
1155
root  46.1831 38.2097 16.055 169.811 54.115 177.909
RightUpLeg  -16.0992 -13.9917 -9.33564
RightLeg  19.6936 6.79082 2.46717
RightFoot  7.97763 -0.826565 5.14165
RightToes  0.00048216 0.542163 -0.142577
Spine  11.9296 1.04108 7.25161
Spine1  5.6317 3.77832 -7.87986
HEad  -13.4583 19.7268 -12.3278
LeftShoulder1  7.5213 -11.4232 -43.8504
LeftArm  -18.2429 19.0921 -26.0369
LeftForeArm  48.276 -63.5967 -17.9409
LeftHand  -0.25398 0.0180481 5.50724
RightShoulder  5.45696 9.31554 36.5723
RightArm  13.6176 -18.6362 37.064
RightForeArm  121.101 79.614 111.806
RightHand  -1.66781 5.0169 -18.807
LeftUpLeg  12.1289 -1.68766 2.01162
LeftLeg  34.0721 4.691 3.82638
LeftFoot  -14.9247 -0.215835 -9.11004
LeftToes  1.06246e-005 4.65856e-005 -8.18502e-006
